<mxfile host="Electron" agent="Mozilla/5.0 (Macintosh; Intel Mac OS X 10_15_7) AppleWebKit/537.36 (KHTML, like Gecko) draw.io/27.0.5 Chrome/134.0.6998.205 Electron/35.3.0 Safari/537.36" version="27.0.5">
  <diagram name="第 1 页" id="raP9I7w9HJuVn9uI5VcJ">
    <mxGraphModel dx="1234" dy="803" grid="1" gridSize="10" guides="1" tooltips="1" connect="1" arrows="1" fold="1" page="1" pageScale="1" pageWidth="827" pageHeight="1169" math="0" shadow="0">
      <root>
        <mxCell id="0" />
        <mxCell id="1" parent="0" />
        <mxCell id="Lhsv0Yfd5E1QXEF5s4fU-1" value="1" style="ellipse;whiteSpace=wrap;html=1;aspect=fixed;labelBackgroundColor=none;fillColor=#F5AB50;strokeColor=#909090;fontColor=#1A1A1A;fontSize=20;" parent="1" vertex="1">
          <mxGeometry x="360" y="120" width="80" height="80" as="geometry" />
        </mxCell>
        <mxCell id="Lhsv0Yfd5E1QXEF5s4fU-16" style="rounded=0;orthogonalLoop=1;jettySize=auto;html=1;entryX=0.763;entryY=0.038;entryDx=0;entryDy=0;startArrow=none;startFill=0;endArrow=none;labelBackgroundColor=none;fontColor=default;exitX=0;exitY=1;exitDx=0;exitDy=0;entryPerimeter=0;strokeColor=#182E3E;fontSize=20;" parent="1" source="Lhsv0Yfd5E1QXEF5s4fU-2" target="Lhsv0Yfd5E1QXEF5s4fU-4" edge="1">
          <mxGeometry relative="1" as="geometry" />
        </mxCell>
        <mxCell id="Lhsv0Yfd5E1QXEF5s4fU-17" style="rounded=0;orthogonalLoop=1;jettySize=auto;html=1;entryX=0.263;entryY=0.063;entryDx=0;entryDy=0;fontColor=default;startArrow=none;startFill=0;endArrow=none;labelBackgroundColor=none;exitX=1;exitY=1;exitDx=0;exitDy=0;entryPerimeter=0;strokeColor=#182E3E;fontSize=20;" parent="1" source="Lhsv0Yfd5E1QXEF5s4fU-2" target="Lhsv0Yfd5E1QXEF5s4fU-5" edge="1">
          <mxGeometry relative="1" as="geometry" />
        </mxCell>
        <mxCell id="Lhsv0Yfd5E1QXEF5s4fU-2" value="2" style="ellipse;whiteSpace=wrap;html=1;aspect=fixed;labelBackgroundColor=none;fillColor=#F5AB50;strokeColor=#909090;fontColor=#1A1A1A;fontSize=20;" parent="1" vertex="1">
          <mxGeometry x="200" y="200" width="80" height="80" as="geometry" />
        </mxCell>
        <mxCell id="Lhsv0Yfd5E1QXEF5s4fU-18" style="rounded=0;orthogonalLoop=1;jettySize=auto;html=1;entryX=0.725;entryY=0.063;entryDx=0;entryDy=0;fontColor=default;exitX=0;exitY=1;exitDx=0;exitDy=0;startArrow=none;startFill=0;endArrow=none;labelBackgroundColor=none;entryPerimeter=0;strokeColor=#182E3E;fontSize=20;" parent="1" source="Lhsv0Yfd5E1QXEF5s4fU-3" target="Lhsv0Yfd5E1QXEF5s4fU-6" edge="1">
          <mxGeometry relative="1" as="geometry" />
        </mxCell>
        <mxCell id="Lhsv0Yfd5E1QXEF5s4fU-19" style="rounded=0;orthogonalLoop=1;jettySize=auto;html=1;entryX=0.263;entryY=0.063;entryDx=0;entryDy=0;fontColor=default;exitX=1;exitY=1;exitDx=0;exitDy=0;startArrow=none;startFill=0;endArrow=none;labelBackgroundColor=none;entryPerimeter=0;strokeColor=#182E3E;fontSize=20;" parent="1" source="Lhsv0Yfd5E1QXEF5s4fU-3" target="Lhsv0Yfd5E1QXEF5s4fU-7" edge="1">
          <mxGeometry relative="1" as="geometry" />
        </mxCell>
        <mxCell id="Lhsv0Yfd5E1QXEF5s4fU-3" value="3" style="ellipse;whiteSpace=wrap;html=1;aspect=fixed;labelBackgroundColor=none;fillColor=#F5AB50;strokeColor=#909090;fontColor=#1A1A1A;fontSize=20;" parent="1" vertex="1">
          <mxGeometry x="520" y="200" width="80" height="80" as="geometry" />
        </mxCell>
        <mxCell id="a15RRHkdn7nA1BFI75FA-1" style="rounded=0;orthogonalLoop=1;jettySize=auto;html=1;entryX=1;entryY=0;entryDx=0;entryDy=0;exitX=0;exitY=1;exitDx=0;exitDy=0;endArrow=none;startFill=0;labelBackgroundColor=none;strokeColor=#182E3E;fontColor=default;fontSize=20;" parent="1" source="Lhsv0Yfd5E1QXEF5s4fU-4" target="Lhsv0Yfd5E1QXEF5s4fU-9" edge="1">
          <mxGeometry relative="1" as="geometry" />
        </mxCell>
        <mxCell id="Lhsv0Yfd5E1QXEF5s4fU-4" value="4" style="ellipse;whiteSpace=wrap;html=1;aspect=fixed;labelBackgroundColor=none;fillColor=#F5AB50;strokeColor=#909090;fontColor=#1A1A1A;fontSize=20;" parent="1" vertex="1">
          <mxGeometry x="120" y="320" width="80" height="80" as="geometry" />
        </mxCell>
        <mxCell id="Lhsv0Yfd5E1QXEF5s4fU-5" value="5" style="ellipse;whiteSpace=wrap;html=1;aspect=fixed;labelBackgroundColor=none;fillColor=#F5AB50;strokeColor=#909090;fontColor=#1A1A1A;fontSize=20;" parent="1" vertex="1">
          <mxGeometry x="280" y="320" width="80" height="80" as="geometry" />
        </mxCell>
        <mxCell id="Lhsv0Yfd5E1QXEF5s4fU-6" value="6" style="ellipse;whiteSpace=wrap;html=1;aspect=fixed;labelBackgroundColor=none;fillColor=#F5AB50;strokeColor=#909090;fontColor=#1A1A1A;fontSize=20;" parent="1" vertex="1">
          <mxGeometry x="440" y="320" width="80" height="80" as="geometry" />
        </mxCell>
        <mxCell id="Lhsv0Yfd5E1QXEF5s4fU-7" value="7" style="ellipse;whiteSpace=wrap;html=1;aspect=fixed;labelBackgroundColor=none;fillColor=#F5AB50;strokeColor=#909090;fontColor=#1A1A1A;fontSize=20;" parent="1" vertex="1">
          <mxGeometry x="600" y="320" width="80" height="80" as="geometry" />
        </mxCell>
        <mxCell id="Lhsv0Yfd5E1QXEF5s4fU-9" value="8" style="ellipse;whiteSpace=wrap;html=1;aspect=fixed;labelBackgroundColor=none;fillColor=#F5AB50;strokeColor=#909090;fontColor=#1A1A1A;fontSize=20;" parent="1" vertex="1">
          <mxGeometry x="40" y="440" width="80" height="80" as="geometry" />
        </mxCell>
        <mxCell id="Lhsv0Yfd5E1QXEF5s4fU-14" value="" style="endArrow=none;html=1;rounded=0;entryX=0.038;entryY=0.663;entryDx=0;entryDy=0;labelBackgroundColor=none;fontColor=default;exitX=1;exitY=0;exitDx=0;exitDy=0;entryPerimeter=0;strokeColor=#182E3E;fontSize=20;" parent="1" source="Lhsv0Yfd5E1QXEF5s4fU-2" target="Lhsv0Yfd5E1QXEF5s4fU-1" edge="1">
          <mxGeometry width="50" height="50" relative="1" as="geometry">
            <mxPoint x="290" y="180" as="sourcePoint" />
            <mxPoint x="340" y="130" as="targetPoint" />
          </mxGeometry>
        </mxCell>
        <mxCell id="Lhsv0Yfd5E1QXEF5s4fU-15" value="" style="endArrow=none;html=1;rounded=0;entryX=0;entryY=0;entryDx=0;entryDy=0;labelBackgroundColor=none;fontColor=default;exitX=0.988;exitY=0.638;exitDx=0;exitDy=0;exitPerimeter=0;strokeColor=#182E3E;fontSize=20;" parent="1" source="Lhsv0Yfd5E1QXEF5s4fU-1" target="Lhsv0Yfd5E1QXEF5s4fU-3" edge="1">
          <mxGeometry width="50" height="50" relative="1" as="geometry">
            <mxPoint x="400" y="180" as="sourcePoint" />
            <mxPoint x="540" y="110" as="targetPoint" />
          </mxGeometry>
        </mxCell>
      </root>
    </mxGraphModel>
  </diagram>
</mxfile>
